<svg width="127" height="42" viewBox="0 0 127 42" fill="none" xmlns="http://www.w3.org/2000/svg">
<g clip-path="url(#clip0_44_3)">
<path d="M13.5393 29.3965H11.1249L6.20227 21.45L4.02224 24.052V29.3965H1.91254V12.9878H4.02224V21.1922L10.7264 12.9878H13.2112L7.5853 19.7622L13.5393 29.3965ZM27.4542 29.3965H25.3211L24.0084 25.0834H17.9137L16.601 29.3965H14.5382L19.6718 12.9878H22.3675L27.4542 29.3965ZM20.961 15.0975L18.4997 23.1612H23.4223L20.961 15.0975ZM37.9467 21.4031H38.0639C39.6579 21.4031 40.2908 22.1532 40.2908 23.6535V29.3965H38.1811V23.8879C38.1811 23.044 37.8295 22.6924 36.9856 22.6924H32.1098V29.3965H30.0001V12.9878H35.4854C38.3452 12.9878 40.5252 14.8396 40.5252 17.3947C40.5252 19.3403 39.5407 20.7702 37.9467 21.4031ZM32.1098 20.7937H35.04C36.9153 20.7937 38.4155 19.645 38.4155 17.7463C38.4155 15.9179 37.1731 14.9099 35.04 14.9099H32.1098V20.7937ZM50.0566 29.3965H44.1494V12.9878H49.9394C52.8461 12.9878 54.5573 14.6755 54.5573 17.254C54.5573 19.27 53.4087 20.5827 51.885 21.0749C53.4321 21.3797 54.9089 22.6689 54.9089 24.9193C54.9089 27.615 53.0336 29.3965 50.0566 29.3965ZM46.2591 14.9099V20.1373H49.6112C51.299 20.1373 52.4476 19.2231 52.4476 17.5119C52.4476 15.8241 51.5099 14.9099 49.6112 14.9099H46.2591ZM46.2591 22.036V27.4744H49.6581C51.7443 27.4744 52.7992 26.5602 52.7992 24.7318C52.7992 22.9268 51.5334 22.036 49.6815 22.036H46.2591ZM63.151 20.864L67.0188 12.9878H69.2926L64.1824 22.8799V29.3965H62.0727V22.8799L57.0094 12.9878H59.3301L63.151 20.864ZM77.23 29.631C73.034 29.631 71.065 27.404 71.0181 24.1223H73.1278C73.245 26.6305 74.7687 27.7088 77.3237 27.7088H77.4644C79.7147 27.7088 80.8868 26.4898 80.8868 24.9896C80.8868 23.6535 80.1367 22.833 78.3317 22.458L75.8469 21.9188C73.1043 21.3328 71.8151 19.9263 71.8151 17.5119C71.8151 14.9568 73.9482 12.7533 77.4409 12.7533C81.0743 12.7533 83.1606 14.8396 83.2543 17.9104H81.1446C81.0274 15.871 79.5975 14.6755 77.4878 14.6755H77.3706C75.3078 14.6755 73.9248 15.8945 73.9248 17.4885C73.9248 18.848 74.7218 19.5513 76.433 19.9029L78.7771 20.3952C81.4963 20.9577 82.9965 22.3408 82.9965 24.849C82.9965 27.6385 80.8399 29.631 77.23 29.631ZM88.0037 29.3965H85.894V12.9878H88.0037V20.2311H94.5204V12.9878H96.6301V29.3965H94.5204V22.1532H88.0037V29.3965ZM110.779 29.3965H100.301V12.9878H110.545V14.9099H102.411V19.9967H109.303V21.9188H102.411V27.4744H110.779V29.3965ZM119.397 27.029L123.382 12.9878H125.655L120.756 29.3965H118.014L113.114 12.9878H115.365L119.397 27.029Z" fill="#0C0C0C"/>
</g>
<defs>
<clipPath id="clip0_44_3">
<rect width="127" height="42" fill="white"/>
</clipPath>
</defs>
</svg>
