<svg width="127" height="42" viewBox="0 0 127 42" fill="none" xmlns="http://www.w3.org/2000/svg">
<g clip-path="url(#clip0_44_6)">
<path d="M13.5392 29.3965H11.1248L6.20215 21.45L4.02212 24.052V29.3965H1.91242V12.9878H4.02212V21.1922L10.7263 12.9878H13.211L7.58517 19.7622L13.5392 29.3965ZM27.4541 29.3965H25.3209L24.0082 25.0834H17.9136L16.6008 29.3965H14.538L19.6716 12.9878H22.3674L27.4541 29.3965ZM20.9609 15.0975L18.4996 23.1612H23.4222L20.9609 15.0975ZM37.9466 21.4031H38.0638C39.6578 21.4031 40.2907 22.1532 40.2907 23.6535V29.3965H38.181V23.8879C38.181 23.044 37.8294 22.6924 36.9855 22.6924H32.1097V29.3965H30V12.9878H35.4852C38.3451 12.9878 40.5251 14.8396 40.5251 17.3947C40.5251 19.3403 39.5406 20.7702 37.9466 21.4031ZM32.1097 20.7937H35.0399C36.9151 20.7937 38.4154 19.645 38.4154 17.7463C38.4154 15.9179 37.173 14.9099 35.0399 14.9099H32.1097V20.7937ZM50.0565 29.3965H44.1493V12.9878H49.9393C52.846 12.9878 54.5572 14.6755 54.5572 17.254C54.5572 19.27 53.4085 20.5827 51.8849 21.0749C53.432 21.3797 54.9088 22.6689 54.9088 24.9193C54.9088 27.615 53.0335 29.3965 50.0565 29.3965ZM46.259 14.9099V20.1373H49.6111C51.2988 20.1373 52.4475 19.2231 52.4475 17.5119C52.4475 15.8241 51.5098 14.9099 49.6111 14.9099H46.259ZM46.259 22.036V27.4744H49.658C51.7442 27.4744 52.7991 26.5602 52.7991 24.7318C52.7991 22.9268 51.5333 22.036 49.6814 22.036H46.259ZM63.1509 20.864L67.0187 12.9878H69.2925L64.1823 22.8799V29.3965H62.0726V22.8799L57.0093 12.9878H59.33L63.1509 20.864ZM77.2299 29.631C73.0339 29.631 71.0648 27.404 71.018 24.1223H73.1277C73.2449 26.6305 74.7685 27.7088 77.3236 27.7088H77.4643C79.7146 27.7088 80.8867 26.4898 80.8867 24.9896C80.8867 23.6535 80.1366 22.833 78.3316 22.458L75.8468 21.9188C73.1042 21.3328 71.815 19.9263 71.815 17.5119C71.815 14.9568 73.9481 12.7533 77.4408 12.7533C81.0742 12.7533 83.1605 14.8396 83.2542 17.9104H81.1445C81.0273 15.871 79.5974 14.6755 77.4877 14.6755H77.3705C75.3077 14.6755 73.9247 15.8945 73.9247 17.4885C73.9247 18.848 74.7217 19.5513 76.4329 19.9029L78.777 20.3952C81.4961 20.9577 82.9964 22.3408 82.9964 24.849C82.9964 27.6385 80.8398 29.631 77.2299 29.631ZM88.0036 29.3965H85.8939V12.9878H88.0036V20.2311H94.5202V12.9878H96.6299V29.3965H94.5202V22.1532H88.0036V29.3965ZM110.779 29.3965H100.301V12.9878H110.545V14.9099H102.411V19.9967H109.302V21.9188H102.411V27.4744H110.779V29.3965ZM119.396 27.029L123.381 12.9878H125.655L120.756 29.3965H118.013L113.114 12.9878H115.365L119.396 27.029Z" fill="white"/>
</g>
<defs>
<clipPath id="clip0_44_6">
<rect width="127" height="42" fill="white"/>
</clipPath>
</defs>
</svg>
