<svg width="102" height="27" viewBox="0 0 102 27" fill="none" xmlns="http://www.w3.org/2000/svg">
<mask id="path-1-outside-1_22_205" maskUnits="userSpaceOnUse" x="1.33704" y="4.99579" width="100" height="16" fill="black">
<rect fill="white" x="1.33704" y="4.99579" width="100" height="16"/>
<path d="M12.0016 19.9958H9.93722L5.72837 13.2015L3.86445 15.4262V19.9958H2.06066V5.9663H3.86445V12.981L9.5965 5.9663H11.721L6.91085 11.7585L12.0016 19.9958ZM22.8966 19.9958H21.0728L19.9505 16.308H14.7395L13.6171 19.9958H11.8534L16.2427 5.9663H18.5475L22.8966 19.9958ZM17.345 7.77009L15.2406 14.6646H19.4494L17.345 7.77009ZM30.8656 13.1614H30.9658C32.3287 13.1614 32.8698 13.8028 32.8698 15.0855V19.9958H31.066V15.2859C31.066 14.5644 30.7654 14.2637 30.0439 14.2637H25.8751V19.9958H24.0713V5.9663H28.7612C31.2063 5.9663 33.0702 7.54963 33.0702 9.73422C33.0702 11.3977 32.2284 12.6203 30.8656 13.1614ZM25.8751 12.6403H28.3804C29.9837 12.6403 31.2664 11.6583 31.2664 10.0349C31.2664 8.47156 30.2042 7.60975 28.3804 7.60975H25.8751V12.6403ZM40.2174 19.9958H35.1668V5.9663H40.1172C42.6024 5.9663 44.0655 7.40933 44.0655 9.61397C44.0655 11.3376 43.0835 12.4599 41.7807 12.8808C43.1035 13.1414 44.3661 14.2437 44.3661 16.1677C44.3661 18.4726 42.7628 19.9958 40.2174 19.9958ZM36.9706 7.60975V12.0791H39.8366C41.2797 12.0791 42.2617 11.2975 42.2617 9.83443C42.2617 8.39139 41.46 7.60975 39.8366 7.60975H36.9706ZM36.9706 13.7026V18.3523H39.8767C41.6605 18.3523 42.5624 17.5707 42.5624 16.0074C42.5624 14.4642 41.4801 13.7026 39.8968 13.7026H36.9706ZM50.411 12.7005L53.718 5.9663H55.6621L51.2929 14.4241V19.9958H49.4891V14.4241L45.16 5.9663H47.1442L50.411 12.7005ZM61.4464 20.1962C57.8589 20.1962 56.1753 18.2922 56.1353 15.4863H57.9391C58.0393 17.6308 59.342 18.5528 61.5266 18.5528H61.6468C63.5709 18.5528 64.573 17.5106 64.573 16.2279C64.573 15.0855 63.9317 14.384 62.3884 14.0633L60.2639 13.6023C57.919 13.1013 56.8167 11.8988 56.8167 9.83443C56.8167 7.64984 58.6405 5.76588 61.6268 5.76588C64.7333 5.76588 66.5171 7.54963 66.5973 10.1751H64.7935C64.6933 8.43148 63.4707 7.40933 61.6669 7.40933H61.5667C59.803 7.40933 58.6205 8.45152 58.6205 9.81439C58.6205 10.9768 59.3019 11.5781 60.765 11.8787L62.7692 12.2996C65.0941 12.7806 66.3768 13.9631 66.3768 16.1076C66.3768 18.4926 64.5329 20.1962 61.4464 20.1962ZM69.6559 19.9958H67.8521V5.9663H69.6559V12.1593H75.2276V5.9663H77.0314V19.9958H75.2276V13.8028H69.6559V19.9958ZM88.1269 19.9958H79.1681V5.9663H87.9265V7.60975H80.9718V11.9589H86.8642V13.6023H80.9718V18.3523H88.1269V19.9958ZM94.4925 17.9715L97.8996 5.9663H99.8437L95.6549 19.9958H93.31L89.1212 5.9663H91.0452L94.4925 17.9715Z"/>
</mask>
<path d="M12.0016 19.9958H9.93722L5.72837 13.2015L3.86445 15.4262V19.9958H2.06066V5.9663H3.86445V12.981L9.5965 5.9663H11.721L6.91085 11.7585L12.0016 19.9958ZM22.8966 19.9958H21.0728L19.9505 16.308H14.7395L13.6171 19.9958H11.8534L16.2427 5.9663H18.5475L22.8966 19.9958ZM17.345 7.77009L15.2406 14.6646H19.4494L17.345 7.77009ZM30.8656 13.1614H30.9658C32.3287 13.1614 32.8698 13.8028 32.8698 15.0855V19.9958H31.066V15.2859C31.066 14.5644 30.7654 14.2637 30.0439 14.2637H25.8751V19.9958H24.0713V5.9663H28.7612C31.2063 5.9663 33.0702 7.54963 33.0702 9.73422C33.0702 11.3977 32.2284 12.6203 30.8656 13.1614ZM25.8751 12.6403H28.3804C29.9837 12.6403 31.2664 11.6583 31.2664 10.0349C31.2664 8.47156 30.2042 7.60975 28.3804 7.60975H25.8751V12.6403ZM40.2174 19.9958H35.1668V5.9663H40.1172C42.6024 5.9663 44.0655 7.40933 44.0655 9.61397C44.0655 11.3376 43.0835 12.4599 41.7807 12.8808C43.1035 13.1414 44.3661 14.2437 44.3661 16.1677C44.3661 18.4726 42.7628 19.9958 40.2174 19.9958ZM36.9706 7.60975V12.0791H39.8366C41.2797 12.0791 42.2617 11.2975 42.2617 9.83443C42.2617 8.39139 41.46 7.60975 39.8366 7.60975H36.9706ZM36.9706 13.7026V18.3523H39.8767C41.6605 18.3523 42.5624 17.5707 42.5624 16.0074C42.5624 14.4642 41.4801 13.7026 39.8968 13.7026H36.9706ZM50.411 12.7005L53.718 5.9663H55.6621L51.2929 14.4241V19.9958H49.4891V14.4241L45.16 5.9663H47.1442L50.411 12.7005ZM61.4464 20.1962C57.8589 20.1962 56.1753 18.2922 56.1353 15.4863H57.9391C58.0393 17.6308 59.342 18.5528 61.5266 18.5528H61.6468C63.5709 18.5528 64.573 17.5106 64.573 16.2279C64.573 15.0855 63.9317 14.384 62.3884 14.0633L60.2639 13.6023C57.919 13.1013 56.8167 11.8988 56.8167 9.83443C56.8167 7.64984 58.6405 5.76588 61.6268 5.76588C64.7333 5.76588 66.5171 7.54963 66.5973 10.1751H64.7935C64.6933 8.43148 63.4707 7.40933 61.6669 7.40933H61.5667C59.803 7.40933 58.6205 8.45152 58.6205 9.81439C58.6205 10.9768 59.3019 11.5781 60.765 11.8787L62.7692 12.2996C65.0941 12.7806 66.3768 13.9631 66.3768 16.1076C66.3768 18.4926 64.5329 20.1962 61.4464 20.1962ZM69.6559 19.9958H67.8521V5.9663H69.6559V12.1593H75.2276V5.9663H77.0314V19.9958H75.2276V13.8028H69.6559V19.9958ZM88.1269 19.9958H79.1681V5.9663H87.9265V7.60975H80.9718V11.9589H86.8642V13.6023H80.9718V18.3523H88.1269V19.9958ZM94.4925 17.9715L97.8996 5.9663H99.8437L95.6549 19.9958H93.31L89.1212 5.9663H91.0452L94.4925 17.9715Z" fill="#0C0C0C"/>
<path d="M12.0016 19.9958V20.3966H12.7205L12.3425 19.7851L12.0016 19.9958ZM9.93722 19.9958L9.59646 20.2069L9.714 20.3966H9.93722V19.9958ZM5.72837 13.2015L6.06913 12.9904L5.77717 12.5191L5.42112 12.9441L5.72837 13.2015ZM3.86445 15.4262L3.5572 15.1688L3.46361 15.2805V15.4262H3.86445ZM3.86445 19.9958V20.3966H4.26529V19.9958H3.86445ZM2.06066 19.9958H1.65982V20.3966H2.06066V19.9958ZM2.06066 5.9663V5.56545H1.65982V5.9663H2.06066ZM3.86445 5.9663H4.26529V5.56545H3.86445V5.9663ZM3.86445 12.981H3.46361V14.1051L4.17484 13.2347L3.86445 12.981ZM9.5965 5.9663V5.56545H9.4064L9.28611 5.71266L9.5965 5.9663ZM11.721 5.9663L12.0293 6.22238L12.5749 5.56545H11.721V5.9663ZM6.91085 11.7585L6.60248 11.5024L6.41838 11.7241L6.56987 11.9692L6.91085 11.7585ZM12.0016 19.9958V19.5949H9.93722V19.9958V20.3966H12.0016V19.9958ZM9.93722 19.9958L10.278 19.7847L6.06913 12.9904L5.72837 13.2015L5.38761 13.4126L9.59646 20.2069L9.93722 19.9958ZM5.72837 13.2015L5.42112 12.9441L3.5572 15.1688L3.86445 15.4262L4.17171 15.6836L6.03562 13.4589L5.72837 13.2015ZM3.86445 15.4262H3.46361V19.9958H3.86445H4.26529V15.4262H3.86445ZM3.86445 19.9958V19.5949H2.06066V19.9958V20.3966H3.86445V19.9958ZM2.06066 19.9958H2.4615V5.9663H2.06066H1.65982V19.9958H2.06066ZM2.06066 5.9663V6.36714H3.86445V5.9663V5.56545H2.06066V5.9663ZM3.86445 5.9663H3.46361V12.981H3.86445H4.26529V5.9663H3.86445ZM3.86445 12.981L4.17484 13.2347L9.90689 6.21993L9.5965 5.9663L9.28611 5.71266L3.55406 12.7274L3.86445 12.981ZM9.5965 5.9663V6.36714H11.721V5.9663V5.56545H9.5965V5.9663ZM11.721 5.9663L11.4126 5.71021L6.60248 11.5024L6.91085 11.7585L7.21923 12.0146L12.0293 6.22238L11.721 5.9663ZM6.91085 11.7585L6.56987 11.9692L11.6606 20.2065L12.0016 19.9958L12.3425 19.7851L7.25184 11.5477L6.91085 11.7585ZM22.8966 19.9958V20.3966H23.4406L23.2795 19.8771L22.8966 19.9958ZM21.0728 19.9958L20.6893 20.1125L20.7758 20.3966H21.0728V19.9958ZM19.9505 16.308L20.3339 16.1913L20.2475 15.9072H19.9505V16.308ZM14.7395 16.308V15.9072H14.4425L14.356 16.1913L14.7395 16.308ZM13.6171 19.9958V20.3966H13.9141L14.0006 20.1125L13.6171 19.9958ZM11.8534 19.9958L11.4709 19.8761L11.308 20.3966H11.8534V19.9958ZM16.2427 5.9663V5.56545H15.9481L15.8601 5.84661L16.2427 5.9663ZM18.5475 5.9663L18.9304 5.84761L18.8429 5.56545H18.5475V5.9663ZM17.345 7.77009L17.7284 7.65307L17.345 6.39704L16.9616 7.65307L17.345 7.77009ZM15.2406 14.6646L14.8572 14.5476L14.6991 15.0654H15.2406V14.6646ZM19.4494 14.6646V15.0654H19.9908L19.8328 14.5476L19.4494 14.6646ZM22.8966 19.9958V19.5949H21.0728V19.9958V20.3966H22.8966V19.9958ZM21.0728 19.9958L21.4563 19.8791L20.3339 16.1913L19.9505 16.308L19.567 16.4247L20.6893 20.1125L21.0728 19.9958ZM19.9505 16.308V15.9072H14.7395V16.308V16.7089H19.9505V16.308ZM14.7395 16.308L14.356 16.1913L13.2337 19.8791L13.6171 19.9958L14.0006 20.1125L15.123 16.4247L14.7395 16.308ZM13.6171 19.9958V19.5949H11.8534V19.9958V20.3966H13.6171V19.9958ZM11.8534 19.9958L12.236 20.1155L16.6252 6.08598L16.2427 5.9663L15.8601 5.84661L11.4709 19.8761L11.8534 19.9958ZM16.2427 5.9663V6.36714H18.5475V5.9663V5.56545H16.2427V5.9663ZM18.5475 5.9663L18.1646 6.08499L22.5138 20.1145L22.8966 19.9958L23.2795 19.8771L18.9304 5.84761L18.5475 5.9663ZM17.345 7.77009L16.9616 7.65307L14.8572 14.5476L15.2406 14.6646L15.6239 14.7816L17.7284 7.88711L17.345 7.77009ZM15.2406 14.6646V15.0654H19.4494V14.6646V14.2637H15.2406V14.6646ZM19.4494 14.6646L19.8328 14.5476L17.7284 7.65307L17.345 7.77009L16.9616 7.88711L19.066 14.7816L19.4494 14.6646ZM30.8656 13.1614L30.7177 12.7889L30.8656 13.5623V13.1614ZM32.8698 19.9958V20.3966H33.2706V19.9958H32.8698ZM31.066 19.9958H30.6652V20.3966H31.066V19.9958ZM25.8751 14.2637V13.8629H25.4742V14.2637H25.8751ZM25.8751 19.9958V20.3966H26.2759V19.9958H25.8751ZM24.0713 19.9958H23.6705V20.3966H24.0713V19.9958ZM24.0713 5.9663V5.56545H23.6705V5.9663H24.0713ZM25.8751 12.6403H25.4742V13.0412H25.8751V12.6403ZM25.8751 7.60975V7.20891H25.4742V7.60975H25.8751ZM30.8656 13.1614V13.5623H30.9658V13.1614V12.7606H30.8656V13.1614ZM30.9658 13.1614V13.5623C31.592 13.5623 31.9395 13.71 32.1387 13.919C32.3417 14.132 32.469 14.4897 32.469 15.0855H32.8698H33.2706C33.2706 14.3985 33.1273 13.7942 32.719 13.3659C32.307 12.9336 31.7024 12.7606 30.9658 12.7606V13.1614ZM32.8698 15.0855H32.469V19.9958H32.8698H33.2706V15.0855H32.8698ZM32.8698 19.9958V19.5949H31.066V19.9958V20.3966H32.8698V19.9958ZM31.066 19.9958H31.4668V15.2859H31.066H30.6652V19.9958H31.066ZM31.066 15.2859H31.4668C31.4668 14.8816 31.3845 14.4964 31.1089 14.2208C30.8334 13.9452 30.4481 13.8629 30.0439 13.8629V14.2637V14.6646C30.3611 14.6646 30.4869 14.7326 30.5421 14.7877C30.5972 14.8428 30.6652 14.9687 30.6652 15.2859H31.066ZM30.0439 14.2637V13.8629H25.8751V14.2637V14.6646H30.0439V14.2637ZM25.8751 14.2637H25.4742V19.9958H25.8751H26.2759V14.2637H25.8751ZM25.8751 19.9958V19.5949H24.0713V19.9958V20.3966H25.8751V19.9958ZM24.0713 19.9958H24.4721V5.9663H24.0713H23.6705V19.9958H24.0713ZM24.0713 5.9663V6.36714H28.7612V5.9663V5.56545H24.0713V5.9663ZM28.7612 5.9663V6.36714C31.0406 6.36714 32.6694 7.82285 32.6694 9.73422H33.0702H33.4711C33.4711 7.2764 31.372 5.56545 28.7612 5.56545V5.9663ZM33.0702 9.73422H32.6694C32.6694 11.2442 31.9181 12.3122 30.7177 12.7889L30.8656 13.1614L31.0135 13.534C32.5388 12.9283 33.4711 11.5513 33.4711 9.73422H33.0702ZM25.8751 12.6403V13.0412H28.3804V12.6403V12.2395H25.8751V12.6403ZM28.3804 12.6403V13.0412C29.2615 13.0412 30.0807 12.7712 30.6861 12.2502C31.2976 11.724 31.6673 10.9608 31.6673 10.0349H31.2664H30.8656C30.8656 10.7323 30.5939 11.2719 30.1632 11.6425C29.7264 12.0184 29.1026 12.2395 28.3804 12.2395V12.6403ZM31.2664 10.0349H31.6673C31.6673 9.15593 31.3643 8.42793 30.7638 7.928C30.1743 7.43726 29.3492 7.20891 28.3804 7.20891V7.60975V8.01059C29.2353 8.01059 29.8533 8.21315 30.2509 8.54413C30.6374 8.86593 30.8656 9.35048 30.8656 10.0349H31.2664ZM28.3804 7.60975V7.20891H25.8751V7.60975V8.01059H28.3804V7.60975ZM25.8751 7.60975H25.4742V12.6403H25.8751H26.2759V7.60975H25.8751ZM35.1668 19.9958H34.766V20.3966H35.1668V19.9958ZM35.1668 5.9663V5.56545H34.766V5.9663H35.1668ZM41.7807 12.8808L41.6575 12.4994L40.1851 12.9751L41.7032 13.2741L41.7807 12.8808ZM36.9706 7.60975V7.20891H36.5698V7.60975H36.9706ZM36.9706 12.0791H36.5698V12.48H36.9706V12.0791ZM36.9706 13.7026V13.3017H36.5698V13.7026H36.9706ZM36.9706 18.3523H36.5698V18.7532H36.9706V18.3523ZM40.2174 19.9958V19.5949H35.1668V19.9958V20.3966H40.2174V19.9958ZM35.1668 19.9958H35.5677V5.9663H35.1668H34.766V19.9958H35.1668ZM35.1668 5.9663V6.36714H40.1172V5.9663V5.56545H35.1668V5.9663ZM40.1172 5.9663V6.36714C41.2831 6.36714 42.1632 6.70457 42.7487 7.25535C43.3317 7.8038 43.6647 8.60315 43.6647 9.61397H44.0655H44.4664C44.4664 8.42015 44.0678 7.39566 43.298 6.67144C42.5306 5.94954 41.4366 5.56545 40.1172 5.56545V5.9663ZM44.0655 9.61397H43.6647C43.6647 11.1567 42.8015 12.1298 41.6575 12.4994L41.7807 12.8808L41.9039 13.2623C43.3654 12.7901 44.4664 11.5185 44.4664 9.61397H44.0655ZM41.7807 12.8808L41.7032 13.2741C42.86 13.502 43.9653 14.4567 43.9653 16.1677H44.3661H44.767C44.767 14.0307 43.347 12.7808 41.8582 12.4875L41.7807 12.8808ZM44.3661 16.1677H43.9653C43.9653 17.2233 43.6008 18.0688 42.9733 18.6526C42.343 19.2389 41.4106 19.5949 40.2174 19.5949V19.9958V20.3966C41.5696 20.3966 42.7116 19.991 43.5193 19.2396C44.3299 18.4855 44.767 17.417 44.767 16.1677H44.3661ZM36.9706 7.60975H36.5698V12.0791H36.9706H37.3714V7.60975H36.9706ZM36.9706 12.0791V12.48H39.8366V12.0791V11.6783H36.9706V12.0791ZM39.8366 12.0791V12.48C40.627 12.48 41.338 12.2657 41.8565 11.8051C42.3818 11.3386 42.6626 10.6608 42.6626 9.83443H42.2617H41.8609C41.8609 10.4711 41.6507 10.9157 41.3241 11.2058C40.9908 11.5018 40.4892 11.6783 39.8366 11.6783V12.0791ZM42.2617 9.83443H42.6626C42.6626 9.03993 42.4402 8.36192 41.9312 7.88767C41.4272 7.41808 40.7066 7.20891 39.8366 7.20891V7.60975V8.01059C40.5901 8.01059 41.082 8.19224 41.3847 8.47423C41.6824 8.75156 41.8609 9.1859 41.8609 9.83443H42.2617ZM39.8366 7.60975V7.20891H36.9706V7.60975V8.01059H39.8366V7.60975ZM36.9706 13.7026H36.5698V18.3523H36.9706H37.3714V13.7026H36.9706ZM36.9706 18.3523V18.7532H39.8767V18.3523V17.9515H36.9706V18.3523ZM39.8767 18.3523V18.7532C40.8184 18.7532 41.6014 18.548 42.1518 18.0683C42.7127 17.5795 42.9632 16.8669 42.9632 16.0074H42.5624H42.1615C42.1615 16.7112 41.9611 17.1711 41.6251 17.4639C41.2786 17.7659 40.7188 17.9515 39.8767 17.9515V18.3523ZM42.5624 16.0074H42.9632C42.9632 15.1339 42.652 14.4364 42.0771 13.966C41.5143 13.5055 40.7465 13.3017 39.8968 13.3017V13.7026V14.1034C40.6303 14.1034 41.1954 14.2804 41.5695 14.5865C41.9316 14.8828 42.1615 15.3377 42.1615 16.0074H42.5624ZM39.8968 13.7026V13.3017H36.9706V13.7026V14.1034H39.8968V13.7026ZM50.411 12.7005L50.0504 12.8754L50.4088 13.6143L50.7708 12.8771L50.411 12.7005ZM53.718 5.9663V5.56545H53.4683L53.3582 5.78961L53.718 5.9663ZM55.6621 5.9663L56.0182 6.15027L56.3203 5.56545H55.6621V5.9663ZM51.2929 14.4241L50.9368 14.2401L50.8921 14.3267V14.4241H51.2929ZM51.2929 19.9958V20.3966H51.6937V19.9958H51.2929ZM49.4891 19.9958H49.0883V20.3966H49.4891V19.9958ZM49.4891 14.4241H49.8899V14.3275L49.8459 14.2414L49.4891 14.4241ZM45.16 5.9663V5.56545H44.5045L44.8032 6.14893L45.16 5.9663ZM47.1442 5.9663L47.5048 5.79134L47.3952 5.56545H47.1442V5.9663ZM50.411 12.7005L50.7708 12.8771L54.0778 6.14298L53.718 5.9663L53.3582 5.78961L50.0512 12.5238L50.411 12.7005ZM53.718 5.9663V6.36714H55.6621V5.9663V5.56545H53.718V5.9663ZM55.6621 5.9663L55.306 5.78232L50.9368 14.2401L51.2929 14.4241L51.649 14.608L56.0182 6.15027L55.6621 5.9663ZM51.2929 14.4241H50.8921V19.9958H51.2929H51.6937V14.4241H51.2929ZM51.2929 19.9958V19.5949H49.4891V19.9958V20.3966H51.2929V19.9958ZM49.4891 19.9958H49.8899V14.4241H49.4891H49.0883V19.9958H49.4891ZM49.4891 14.4241L49.8459 14.2414L45.5168 5.78366L45.16 5.9663L44.8032 6.14893L49.1323 14.6067L49.4891 14.4241ZM45.16 5.9663V6.36714H47.1442V5.9663V5.56545H45.16V5.9663ZM47.1442 5.9663L46.7835 6.14125L50.0504 12.8754L50.411 12.7005L50.7717 12.5255L47.5048 5.79134L47.1442 5.9663ZM56.1353 15.4863V15.0855H55.7287L55.7345 15.492L56.1353 15.4863ZM57.9391 15.4863L58.3395 15.4676L58.3216 15.0855H57.9391V15.4863ZM62.3884 14.0633L62.3034 14.4551L62.3069 14.4558L62.3884 14.0633ZM60.2639 13.6023L60.3489 13.2106L60.3477 13.2104L60.2639 13.6023ZM66.5973 10.1751V10.576H67.0105L66.9979 10.1629L66.5973 10.1751ZM64.7935 10.1751L64.3933 10.1981L64.415 10.576H64.7935V10.1751ZM60.765 11.8787L60.8474 11.4864L60.8457 11.4861L60.765 11.8787ZM62.7692 12.2996L62.6868 12.6919L62.688 12.6921L62.7692 12.2996ZM61.4464 20.1962V19.7954C59.7212 19.7954 58.5144 19.3383 57.7359 18.6022C56.9593 17.8679 56.555 16.8048 56.5361 15.4806L56.1353 15.4863L55.7345 15.492C55.7556 16.9738 56.2131 18.2656 57.1851 19.1847C58.1553 20.1021 59.5841 20.5971 61.4464 20.5971V20.1962ZM56.1353 15.4863V15.8872H57.9391V15.4863V15.0855H56.1353V15.4863ZM57.9391 15.4863L57.5386 15.505C57.5925 16.6583 57.9757 17.5454 58.6978 18.1344C59.4086 18.714 60.386 18.9536 61.5266 18.9536V18.5528V18.1519C60.4826 18.1519 59.7163 17.9305 59.2045 17.5131C58.7041 17.1049 58.3858 16.4588 58.3395 15.4676L57.9391 15.4863ZM61.5266 18.5528V18.9536H61.6468V18.5528V18.1519H61.5266V18.5528ZM61.6468 18.5528V18.9536C62.6794 18.9536 63.5115 18.6735 64.0923 18.1757C64.6773 17.6742 64.9738 16.9793 64.9738 16.2279H64.573H64.1722C64.1722 16.7591 63.9676 17.2266 63.5706 17.567C63.1693 17.9109 62.5384 18.1519 61.6468 18.1519V18.5528ZM64.573 16.2279H64.9738C64.9738 15.5756 64.7875 15.0049 64.3448 14.556C63.9137 14.1187 63.2804 13.8393 62.47 13.6709L62.3884 14.0633L62.3069 14.4558C63.0396 14.608 63.4987 14.8396 63.774 15.1189C64.0378 15.3865 64.1722 15.7377 64.1722 16.2279H64.573ZM62.3884 14.0633L62.4734 13.6716L60.3489 13.2106L60.2639 13.6023L60.1789 13.9941L62.3034 14.455L62.3884 14.0633ZM60.2639 13.6023L60.3477 13.2104C59.2218 12.9698 58.4489 12.5718 57.9567 12.034C57.4711 11.5035 57.2175 10.7919 57.2175 9.83443H56.8167H56.4159C56.4159 10.9413 56.7135 11.8632 57.3653 12.5753C58.0104 13.28 58.9611 13.7339 60.1802 13.9943L60.2639 13.6023ZM56.8167 9.83443H57.2175C57.2175 7.91097 58.8199 6.16672 61.6268 6.16672V5.76588V5.36503C58.4611 5.36503 56.4159 7.3887 56.4159 9.83443H56.8167ZM61.6268 5.76588V6.16672C63.1037 6.16672 64.2216 6.58965 64.976 7.28139C65.7286 7.9714 66.1593 8.96512 66.1966 10.1874L66.5973 10.1751L66.9979 10.1629C66.9551 8.75965 66.4538 7.54874 65.5178 6.69049C64.5837 5.83398 63.2565 5.36503 61.6268 5.36503V5.76588ZM66.5973 10.1751V9.7743H64.7935V10.1751V10.576H66.5973V10.1751ZM64.7935 10.1751L65.1936 10.1521C65.1382 9.18727 64.7678 8.38957 64.1323 7.8361C63.5005 7.28585 62.6434 7.00849 61.6669 7.00849V7.40933V7.81017C62.4942 7.81017 63.1502 8.04389 63.6058 8.44063C64.0576 8.83415 64.3485 9.41935 64.3933 10.1981L64.7935 10.1751ZM61.6669 7.40933V7.00849H61.5667V7.40933V7.81017H61.6669V7.40933ZM61.5667 7.40933V7.00849C59.6523 7.00849 58.2196 8.16547 58.2196 9.81439H58.6205H59.0213C59.0213 8.73757 59.9536 7.81017 61.5667 7.81017V7.40933ZM58.6205 9.81439H58.2196C58.2196 10.4825 58.4199 11.0377 58.869 11.4613C59.3014 11.8692 59.923 12.1149 60.6843 12.2714L60.765 11.8787L60.8457 11.4861C60.1439 11.3419 59.6933 11.1367 59.4191 10.8781C59.1618 10.6354 59.0213 10.3087 59.0213 9.81439H58.6205ZM60.765 11.8787L60.6826 12.271L62.6868 12.6919L62.7692 12.2996L62.8516 11.9073L60.8474 11.4864L60.765 11.8787ZM62.7692 12.2996L62.688 12.6921C63.8066 12.9236 64.6232 13.314 65.1585 13.8604C65.6844 14.397 65.9759 15.1219 65.9759 16.1076H66.3768H66.7776C66.7776 14.9489 66.4278 14.0102 65.7311 13.2993C65.0439 12.5979 64.0567 12.1567 62.8504 11.9071L62.7692 12.2996ZM66.3768 16.1076H65.9759C65.9759 17.1899 65.5611 18.0982 64.8085 18.7416C64.0507 19.3896 62.9181 19.7954 61.4464 19.7954V20.1962V20.5971C63.0613 20.5971 64.3938 20.151 65.3295 19.351C66.2706 18.5464 66.7776 17.4103 66.7776 16.1076H66.3768ZM69.6559 19.9958V20.3966H70.0567V19.9958H69.6559ZM67.8521 19.9958H67.4512V20.3966H67.8521V19.9958ZM67.8521 5.9663V5.56545H67.4512V5.9663H67.8521ZM69.6559 5.9663H70.0567V5.56545H69.6559V5.9663ZM69.6559 12.1593H69.255V12.5602H69.6559V12.1593ZM75.2276 12.1593V12.5602H75.6284V12.1593H75.2276ZM75.2276 5.9663V5.56545H74.8267V5.9663H75.2276ZM77.0314 5.9663H77.4322V5.56545H77.0314V5.9663ZM77.0314 19.9958V20.3966H77.4322V19.9958H77.0314ZM75.2276 19.9958H74.8267V20.3966H75.2276V19.9958ZM75.2276 13.8028H75.6284V13.4019H75.2276V13.8028ZM69.6559 13.8028V13.4019H69.255V13.8028H69.6559ZM69.6559 19.9958V19.5949H67.8521V19.9958V20.3966H69.6559V19.9958ZM67.8521 19.9958H68.2529V5.9663H67.8521H67.4512V19.9958H67.8521ZM67.8521 5.9663V6.36714H69.6559V5.9663V5.56545H67.8521V5.9663ZM69.6559 5.9663H69.255V12.1593H69.6559H70.0567V5.9663H69.6559ZM69.6559 12.1593V12.5602H75.2276V12.1593V11.7585H69.6559V12.1593ZM75.2276 12.1593H75.6284V5.9663H75.2276H74.8267V12.1593H75.2276ZM75.2276 5.9663V6.36714H77.0314V5.9663V5.56545H75.2276V5.9663ZM77.0314 5.9663H76.6305V19.9958H77.0314H77.4322V5.9663H77.0314ZM77.0314 19.9958V19.5949H75.2276V19.9958V20.3966H77.0314V19.9958ZM75.2276 19.9958H75.6284V13.8028H75.2276H74.8267V19.9958H75.2276ZM75.2276 13.8028V13.4019H69.6559V13.8028V14.2036H75.2276V13.8028ZM69.6559 13.8028H69.255V19.9958H69.6559H70.0567V13.8028H69.6559ZM88.1269 19.9958V20.3966H88.5277V19.9958H88.1269ZM79.1681 19.9958H78.7672V20.3966H79.1681V19.9958ZM79.1681 5.9663V5.56545H78.7672V5.9663H79.1681ZM87.9265 5.9663H88.3273V5.56545H87.9265V5.9663ZM87.9265 7.60975V8.01059H88.3273V7.60975H87.9265ZM80.9718 7.60975V7.20891H80.571V7.60975H80.9718ZM80.9718 11.9589H80.571V12.3597H80.9718V11.9589ZM86.8642 11.9589H87.2651V11.5581H86.8642V11.9589ZM86.8642 13.6023V14.0032H87.2651V13.6023H86.8642ZM80.9718 13.6023V13.2015H80.571V13.6023H80.9718ZM80.9718 18.3523H80.571V18.7532H80.9718V18.3523ZM88.1269 18.3523H88.5277V17.9515H88.1269V18.3523ZM88.1269 19.9958V19.5949H79.1681V19.9958V20.3966H88.1269V19.9958ZM79.1681 19.9958H79.5689V5.9663H79.1681H78.7672V19.9958H79.1681ZM79.1681 5.9663V6.36714H87.9265V5.9663V5.56545H79.1681V5.9663ZM87.9265 5.9663H87.5256V7.60975H87.9265H88.3273V5.9663H87.9265ZM87.9265 7.60975V7.20891H80.9718V7.60975V8.01059H87.9265V7.60975ZM80.9718 7.60975H80.571V11.9589H80.9718H81.3727V7.60975H80.9718ZM80.9718 11.9589V12.3597H86.8642V11.9589V11.5581H80.9718V11.9589ZM86.8642 11.9589H86.4634V13.6023H86.8642H87.2651V11.9589H86.8642ZM86.8642 13.6023V13.2015H80.9718V13.6023V14.0032H86.8642V13.6023ZM80.9718 13.6023H80.571V18.3523H80.9718H81.3727V13.6023H80.9718ZM80.9718 18.3523V18.7532H88.1269V18.3523V17.9515H80.9718V18.3523ZM88.1269 18.3523H87.726V19.9958H88.1269H88.5277V18.3523H88.1269ZM94.4925 17.9715L94.1072 18.0822L94.4947 19.4318L94.8781 18.081L94.4925 17.9715ZM97.8996 5.9663V5.56545H97.5967L97.514 5.85686L97.8996 5.9663ZM99.8437 5.9663L100.228 6.08097L100.382 5.56545H99.8437V5.9663ZM95.6549 19.9958V20.3966H95.9535L96.039 20.1105L95.6549 19.9958ZM93.31 19.9958L92.9259 20.1105L93.0113 20.3966H93.31V19.9958ZM89.1212 5.9663V5.56545H88.5832L88.7371 6.08097L89.1212 5.9663ZM91.0452 5.9663L91.4305 5.85567L91.3471 5.56545H91.0452V5.9663ZM94.4925 17.9715L94.8781 18.081L98.2852 6.07574L97.8996 5.9663L97.514 5.85686L94.1068 17.8621L94.4925 17.9715ZM97.8996 5.9663V6.36714H99.8437V5.9663V5.56545H97.8996V5.9663ZM99.8437 5.9663L99.4596 5.85162L95.2708 19.8811L95.6549 19.9958L96.039 20.1105L100.228 6.08097L99.8437 5.9663ZM95.6549 19.9958V19.5949H93.31V19.9958V20.3966H95.6549V19.9958ZM93.31 19.9958L93.6941 19.8811L89.5052 5.85162L89.1212 5.9663L88.7371 6.08097L92.9259 20.1105L93.31 19.9958ZM89.1212 5.9663V6.36714H91.0452V5.9663V5.56545H89.1212V5.9663ZM91.0452 5.9663L90.6599 6.07693L94.1072 18.0822L94.4925 17.9715L94.8777 17.8609L91.4305 5.85567L91.0452 5.9663Z" fill="#0C0C0C" mask="url(#path-1-outside-1_22_205)"/>
</svg>
