<svg width="101" height="27" viewBox="0 0 101 27" fill="none" xmlns="http://www.w3.org/2000/svg">
<mask id="path-1-outside-1_19_202" maskUnits="userSpaceOnUse" x="1" y="5.00421" width="100" height="16" fill="black">
<rect fill="white" x="1" y="5.00421" width="100" height="16"/>
<path d="M11.6645 20.0042H9.60018L5.39133 13.2099L3.52742 15.4346V20.0042H1.72362V5.97472H3.52742V12.9895L9.25946 5.97472H11.3839L6.57382 11.7669L11.6645 20.0042ZM22.5596 20.0042H20.7358L19.6134 16.3165H14.4025L13.2801 20.0042H11.5164L15.9056 5.97472H18.2105L22.5596 20.0042ZM17.0079 7.77851L14.9035 14.673H19.1124L17.0079 7.77851ZM30.5285 13.1698H30.6288C31.9916 13.1698 32.5328 13.8112 32.5328 15.0939V20.0042H30.729V15.2943C30.729 14.5728 30.4283 14.2722 29.7068 14.2722H25.5381V20.0042H23.7343V5.97472H28.4241C30.8693 5.97472 32.7332 7.55805 32.7332 9.74264C32.7332 11.4061 31.8914 12.6287 30.5285 13.1698ZM25.5381 12.6487H28.0433C29.6467 12.6487 30.9294 11.6667 30.9294 10.0433C30.9294 8.47999 29.8672 7.61817 28.0433 7.61817H25.5381V12.6487ZM39.8804 20.0042H34.8298V5.97472H39.7802C42.2654 5.97472 43.7285 7.41775 43.7285 9.62239C43.7285 11.346 42.7464 12.4684 41.4437 12.8893C42.7665 13.1498 44.0291 14.2521 44.0291 16.1762C44.0291 18.481 42.4257 20.0042 39.8804 20.0042ZM36.6336 7.61817V12.0876H39.4996C40.9426 12.0876 41.9247 11.3059 41.9247 9.84285C41.9247 8.39982 41.123 7.61817 39.4996 7.61817H36.6336ZM36.6336 13.711V18.3608H39.5397C41.3234 18.3608 42.2253 17.5791 42.2253 16.0158C42.2253 14.4726 41.143 13.711 39.5597 13.711H36.6336ZM50.074 12.7089L53.381 5.97472H55.325L50.9559 14.4325V20.0042H49.1521V14.4325L44.823 5.97472H46.8071L50.074 12.7089ZM61.1094 20.2046C57.5218 20.2046 55.8383 18.3006 55.7982 15.4947H57.602C57.7022 17.6392 59.005 18.5612 61.1896 18.5612H61.3098C63.2339 18.5612 64.236 17.519 64.236 16.2363C64.236 15.0939 63.5946 14.3924 62.0514 14.0717L59.9269 13.6108C57.582 13.1097 56.4797 11.9072 56.4797 9.84285C56.4797 7.65826 58.3035 5.7743 61.2898 5.7743C64.3963 5.7743 66.18 7.55805 66.2602 10.1836H64.4564C64.3562 8.4399 63.1336 7.41775 61.3299 7.41775H61.2296C59.4659 7.41775 58.2835 8.45994 58.2835 9.82281C58.2835 10.9853 58.9649 11.5865 60.428 11.8871L62.4322 12.308C64.7571 12.789 66.0398 13.9715 66.0398 16.116C66.0398 18.5011 64.1959 20.2046 61.1094 20.2046ZM69.3188 20.0042H67.515V5.97472H69.3188V12.1677H74.8905V5.97472H76.6943V20.0042H74.8905V13.8112H69.3188V20.0042ZM87.7898 20.0042H78.831V5.97472H87.5894V7.61817H80.6348V11.9673H86.5272V13.6108H80.6348V18.3608H87.7898V20.0042ZM94.1554 17.98L97.5626 5.97472H99.5067L95.3179 20.0042H92.9729L88.7841 5.97472H90.7082L94.1554 17.98Z"/>
</mask>
<path d="M11.6645 20.0042H9.60018L5.39133 13.2099L3.52742 15.4346V20.0042H1.72362V5.97472H3.52742V12.9895L9.25946 5.97472H11.3839L6.57382 11.7669L11.6645 20.0042ZM22.5596 20.0042H20.7358L19.6134 16.3165H14.4025L13.2801 20.0042H11.5164L15.9056 5.97472H18.2105L22.5596 20.0042ZM17.0079 7.77851L14.9035 14.673H19.1124L17.0079 7.77851ZM30.5285 13.1698H30.6288C31.9916 13.1698 32.5328 13.8112 32.5328 15.0939V20.0042H30.729V15.2943C30.729 14.5728 30.4283 14.2722 29.7068 14.2722H25.5381V20.0042H23.7343V5.97472H28.4241C30.8693 5.97472 32.7332 7.55805 32.7332 9.74264C32.7332 11.4061 31.8914 12.6287 30.5285 13.1698ZM25.5381 12.6487H28.0433C29.6467 12.6487 30.9294 11.6667 30.9294 10.0433C30.9294 8.47999 29.8672 7.61817 28.0433 7.61817H25.5381V12.6487ZM39.8804 20.0042H34.8298V5.97472H39.7802C42.2654 5.97472 43.7285 7.41775 43.7285 9.62239C43.7285 11.346 42.7464 12.4684 41.4437 12.8893C42.7665 13.1498 44.0291 14.2521 44.0291 16.1762C44.0291 18.481 42.4257 20.0042 39.8804 20.0042ZM36.6336 7.61817V12.0876H39.4996C40.9426 12.0876 41.9247 11.3059 41.9247 9.84285C41.9247 8.39982 41.123 7.61817 39.4996 7.61817H36.6336ZM36.6336 13.711V18.3608H39.5397C41.3234 18.3608 42.2253 17.5791 42.2253 16.0158C42.2253 14.4726 41.143 13.711 39.5597 13.711H36.6336ZM50.074 12.7089L53.381 5.97472H55.325L50.9559 14.4325V20.0042H49.1521V14.4325L44.823 5.97472H46.8071L50.074 12.7089ZM61.1094 20.2046C57.5218 20.2046 55.8383 18.3006 55.7982 15.4947H57.602C57.7022 17.6392 59.005 18.5612 61.1896 18.5612H61.3098C63.2339 18.5612 64.236 17.519 64.236 16.2363C64.236 15.0939 63.5946 14.3924 62.0514 14.0717L59.9269 13.6108C57.582 13.1097 56.4797 11.9072 56.4797 9.84285C56.4797 7.65826 58.3035 5.7743 61.2898 5.7743C64.3963 5.7743 66.18 7.55805 66.2602 10.1836H64.4564C64.3562 8.4399 63.1336 7.41775 61.3299 7.41775H61.2296C59.4659 7.41775 58.2835 8.45994 58.2835 9.82281C58.2835 10.9853 58.9649 11.5865 60.428 11.8871L62.4322 12.308C64.7571 12.789 66.0398 13.9715 66.0398 16.116C66.0398 18.5011 64.1959 20.2046 61.1094 20.2046ZM69.3188 20.0042H67.515V5.97472H69.3188V12.1677H74.8905V5.97472H76.6943V20.0042H74.8905V13.8112H69.3188V20.0042ZM87.7898 20.0042H78.831V5.97472H87.5894V7.61817H80.6348V11.9673H86.5272V13.6108H80.6348V18.3608H87.7898V20.0042ZM94.1554 17.98L97.5626 5.97472H99.5067L95.3179 20.0042H92.9729L88.7841 5.97472H90.7082L94.1554 17.98Z" fill="white"/>
<path d="M11.6645 20.0042V20.4051H12.3835L12.0055 19.7935L11.6645 20.0042ZM9.60018 20.0042L9.25942 20.2153L9.37697 20.4051H9.60018V20.0042ZM5.39133 13.2099L5.73209 12.9988L5.44013 12.5275L5.08408 12.9525L5.39133 13.2099ZM3.52742 15.4346L3.22016 15.1772L3.12657 15.2889V15.4346H3.52742ZM3.52742 20.0042V20.4051H3.92826V20.0042H3.52742ZM1.72362 20.0042H1.32278V20.4051H1.72362V20.0042ZM1.72362 5.97472V5.57388H1.32278V5.97472H1.72362ZM3.52742 5.97472H3.92826V5.57388H3.52742V5.97472ZM3.52742 12.9895H3.12657V14.1135L3.83781 13.2431L3.52742 12.9895ZM9.25946 5.97472V5.57388H9.06936L8.94907 5.72108L9.25946 5.97472ZM11.3839 5.97472L11.6923 6.23081L12.2379 5.57388H11.3839V5.97472ZM6.57382 11.7669L6.26545 11.5108L6.08135 11.7325L6.23284 11.9776L6.57382 11.7669ZM11.6645 20.0042V19.6034H9.60018V20.0042V20.4051H11.6645V20.0042ZM9.60018 20.0042L9.94094 19.7931L5.73209 12.9988L5.39133 13.2099L5.05058 13.421L9.25942 20.2153L9.60018 20.0042ZM5.39133 13.2099L5.08408 12.9525L3.22016 15.1772L3.52742 15.4346L3.83467 15.692L5.69859 13.4674L5.39133 13.2099ZM3.52742 15.4346H3.12657V20.0042H3.52742H3.92826V15.4346H3.52742ZM3.52742 20.0042V19.6034H1.72362V20.0042V20.4051H3.52742V20.0042ZM1.72362 20.0042H2.12447V5.97472H1.72362H1.32278V20.0042H1.72362ZM1.72362 5.97472V6.37556H3.52742V5.97472V5.57388H1.72362V5.97472ZM3.52742 5.97472H3.12657V12.9895H3.52742H3.92826V5.97472H3.52742ZM3.52742 12.9895L3.83781 13.2431L9.56986 6.22836L9.25946 5.97472L8.94907 5.72108L3.21702 12.7358L3.52742 12.9895ZM9.25946 5.97472V6.37556H11.3839V5.97472V5.57388H9.25946V5.97472ZM11.3839 5.97472L11.0756 5.71863L6.26545 11.5108L6.57382 11.7669L6.88219 12.023L11.6923 6.23081L11.3839 5.97472ZM6.57382 11.7669L6.23284 11.9776L11.3235 20.2149L11.6645 20.0042L12.0055 19.7935L6.9148 11.5562L6.57382 11.7669ZM22.5596 20.0042V20.4051H23.1035L22.9425 19.8855L22.5596 20.0042ZM20.7358 20.0042L20.3523 20.1209L20.4388 20.4051H20.7358V20.0042ZM19.6134 16.3165L19.9969 16.1997L19.9104 15.9156H19.6134V16.3165ZM14.4025 16.3165V15.9156H14.1055L14.019 16.1997L14.4025 16.3165ZM13.2801 20.0042V20.4051H13.5771L13.6636 20.1209L13.2801 20.0042ZM11.5164 20.0042L11.1338 19.8845L10.971 20.4051H11.5164V20.0042ZM15.9056 5.97472V5.57388H15.611L15.5231 5.85503L15.9056 5.97472ZM18.2105 5.97472L18.5933 5.85603L18.5059 5.57388H18.2105V5.97472ZM17.0079 7.77851L17.3913 7.66149L17.0079 6.40546L16.6246 7.66149L17.0079 7.77851ZM14.9035 14.673L14.5201 14.556L14.3621 15.0738H14.9035V14.673ZM19.1124 14.673V15.0738H19.6538L19.4957 14.556L19.1124 14.673ZM22.5596 20.0042V19.6034H20.7358V20.0042V20.4051H22.5596V20.0042ZM20.7358 20.0042L21.1193 19.8875L19.9969 16.1997L19.6134 16.3165L19.2299 16.4332L20.3523 20.1209L20.7358 20.0042ZM19.6134 16.3165V15.9156H14.4025V16.3165V16.7173H19.6134V16.3165ZM14.4025 16.3165L14.019 16.1997L12.8966 19.8875L13.2801 20.0042L13.6636 20.1209L14.7859 16.4332L14.4025 16.3165ZM13.2801 20.0042V19.6034H11.5164V20.0042V20.4051H13.2801V20.0042ZM11.5164 20.0042L11.899 20.1239L16.2882 6.09441L15.9056 5.97472L15.5231 5.85503L11.1338 19.8845L11.5164 20.0042ZM15.9056 5.97472V6.37556H18.2105V5.97472V5.57388H15.9056V5.97472ZM18.2105 5.97472L17.8276 6.09341L22.1767 20.1229L22.5596 20.0042L22.9425 19.8855L18.5933 5.85603L18.2105 5.97472ZM17.0079 7.77851L16.6246 7.66149L14.5201 14.556L14.9035 14.673L15.2869 14.79L17.3913 7.89553L17.0079 7.77851ZM14.9035 14.673V15.0738H19.1124V14.673V14.2722H14.9035V14.673ZM19.1124 14.673L19.4957 14.556L17.3913 7.66149L17.0079 7.77851L16.6246 7.89553L18.729 14.79L19.1124 14.673ZM30.5285 13.1698L30.3806 12.7973L30.5285 13.5707V13.1698ZM32.5328 20.0042V20.4051H32.9336V20.0042H32.5328ZM30.729 20.0042H30.3281V20.4051H30.729V20.0042ZM25.5381 14.2722V13.8713H25.1372V14.2722H25.5381ZM25.5381 20.0042V20.4051H25.9389V20.0042H25.5381ZM23.7343 20.0042H23.3334V20.4051H23.7343V20.0042ZM23.7343 5.97472V5.57388H23.3334V5.97472H23.7343ZM25.5381 12.6487H25.1372V13.0496H25.5381V12.6487ZM25.5381 7.61817V7.21733H25.1372V7.61817H25.5381ZM30.5285 13.1698V13.5707H30.6288V13.1698V12.769H30.5285V13.1698ZM30.6288 13.1698V13.5707C31.255 13.5707 31.6024 13.7184 31.8017 13.9274C32.0047 14.1404 32.1319 14.4982 32.1319 15.0939H32.5328H32.9336C32.9336 14.4069 32.7903 13.8027 32.382 13.3743C31.9699 12.942 31.3654 12.769 30.6288 12.769V13.1698ZM32.5328 15.0939H32.1319V20.0042H32.5328H32.9336V15.0939H32.5328ZM32.5328 20.0042V19.6034H30.729V20.0042V20.4051H32.5328V20.0042ZM30.729 20.0042H31.1298V15.2943H30.729H30.3281V20.0042H30.729ZM30.729 15.2943H31.1298C31.1298 14.89 31.0475 14.5048 30.7719 14.2292C30.4963 13.9537 30.1111 13.8713 29.7068 13.8713V14.2722V14.673C30.024 14.673 30.1499 14.741 30.205 14.7961C30.2601 14.8512 30.3281 14.9771 30.3281 15.2943H30.729ZM29.7068 14.2722V13.8713H25.5381V14.2722V14.673H29.7068V14.2722ZM25.5381 14.2722H25.1372V20.0042H25.5381H25.9389V14.2722H25.5381ZM25.5381 20.0042V19.6034H23.7343V20.0042V20.4051H25.5381V20.0042ZM23.7343 20.0042H24.1351V5.97472H23.7343H23.3334V20.0042H23.7343ZM23.7343 5.97472V6.37556H28.4241V5.97472V5.57388H23.7343V5.97472ZM28.4241 5.97472V6.37556C30.7036 6.37556 32.3323 7.83127 32.3323 9.74264H32.7332H33.134C33.134 7.28482 31.035 5.57388 28.4241 5.57388V5.97472ZM32.7332 9.74264H32.3323C32.3323 11.2526 31.5811 12.3206 30.3806 12.7973L30.5285 13.1698L30.6765 13.5424C32.2018 12.9368 33.134 11.5597 33.134 9.74264H32.7332ZM25.5381 12.6487V13.0496H28.0433V12.6487V12.2479H25.5381V12.6487ZM28.0433 12.6487V13.0496C28.9245 13.0496 29.7437 12.7796 30.3491 12.2586C30.9606 11.7324 31.3302 10.9692 31.3302 10.0433H30.9294H30.5285C30.5285 10.7408 30.2569 11.2803 29.8262 11.651C29.3894 12.0268 28.7655 12.2479 28.0433 12.2479V12.6487ZM30.9294 10.0433H31.3302C31.3302 9.16436 31.0273 8.43635 30.4268 7.93643C29.8373 7.44568 29.0122 7.21733 28.0433 7.21733V7.61817V8.01902C28.8983 8.01902 29.5163 8.22157 29.9138 8.55256C30.3004 8.87436 30.5285 9.3589 30.5285 10.0433H30.9294ZM28.0433 7.61817V7.21733H25.5381V7.61817V8.01902H28.0433V7.61817ZM25.5381 7.61817H25.1372V12.6487H25.5381H25.9389V7.61817H25.5381ZM34.8298 20.0042H34.4289V20.4051H34.8298V20.0042ZM34.8298 5.97472V5.57388H34.4289V5.97472H34.8298ZM41.4437 12.8893L41.3204 12.5078L39.8481 12.9835L41.3662 13.2825L41.4437 12.8893ZM36.6336 7.61817V7.21733H36.2327V7.61817H36.6336ZM36.6336 12.0876H36.2327V12.4884H36.6336V12.0876ZM36.6336 13.711V13.3101H36.2327V13.711H36.6336ZM36.6336 18.3608H36.2327V18.7616H36.6336V18.3608ZM39.8804 20.0042V19.6034H34.8298V20.0042V20.4051H39.8804V20.0042ZM34.8298 20.0042H35.2306V5.97472H34.8298H34.4289V20.0042H34.8298ZM34.8298 5.97472V6.37556H39.7802V5.97472V5.57388H34.8298V5.97472ZM39.7802 5.97472V6.37556C40.946 6.37556 41.8262 6.71299 42.4116 7.26377C42.9946 7.81222 43.3276 8.61157 43.3276 9.62239H43.7285H44.1293C44.1293 8.42857 43.7308 7.40409 42.9609 6.67986C42.1936 5.95797 41.0995 5.57388 39.7802 5.57388V5.97472ZM43.7285 9.62239H43.3276C43.3276 11.1651 42.4645 12.1382 41.3204 12.5078L41.4437 12.8893L41.5669 13.2707C43.0284 12.7985 44.1293 11.5269 44.1293 9.62239H43.7285ZM41.4437 12.8893L41.3662 13.2825C42.523 13.5104 43.6283 14.4651 43.6283 16.1762H44.0291H44.43C44.43 14.0391 43.0099 12.7892 41.5211 12.496L41.4437 12.8893ZM44.0291 16.1762H43.6283C43.6283 17.2317 43.2637 18.0773 42.6362 18.661C42.006 19.2474 41.0736 19.6034 39.8804 19.6034V20.0042V20.4051C41.2325 20.4051 42.3745 19.9995 43.1823 19.248C43.9928 18.4939 44.43 17.4255 44.43 16.1762H44.0291ZM36.6336 7.61817H36.2327V12.0876H36.6336H37.0344V7.61817H36.6336ZM36.6336 12.0876V12.4884H39.4996V12.0876V11.6867H36.6336V12.0876ZM39.4996 12.0876V12.4884C40.29 12.4884 41.001 12.2741 41.5195 11.8136C42.0447 11.347 42.3255 10.6692 42.3255 9.84285H41.9247H41.5238C41.5238 10.4796 41.3136 10.9241 40.9871 11.2142C40.6538 11.5102 40.1522 11.6867 39.4996 11.6867V12.0876ZM41.9247 9.84285H42.3255C42.3255 9.04835 42.1032 8.37034 41.5942 7.89609C41.0901 7.4265 40.3695 7.21733 39.4996 7.21733V7.61817V8.01902C40.2531 8.01902 40.745 8.20067 41.0477 8.48266C41.3453 8.75999 41.5238 9.19432 41.5238 9.84285H41.9247ZM39.4996 7.61817V7.21733H36.6336V7.61817V8.01902H39.4996V7.61817ZM36.6336 13.711H36.2327V18.3608H36.6336H37.0344V13.711H36.6336ZM36.6336 18.3608V18.7616H39.5397V18.3608V17.9599H36.6336V18.3608ZM39.5397 18.3608V18.7616C40.4814 18.7616 41.2643 18.5564 41.8148 18.0767C42.3756 17.5879 42.6262 16.8753 42.6262 16.0158H42.2253H41.8245C41.8245 16.7196 41.6241 17.1795 41.288 17.4723C40.9416 17.7743 40.3817 17.9599 39.5397 17.9599V18.3608ZM42.2253 16.0158H42.6262C42.6262 15.1423 42.315 14.4448 41.7401 13.9745C41.1772 13.5139 40.4095 13.3101 39.5597 13.3101V13.711V14.1118C40.2933 14.1118 40.8583 14.2888 41.2324 14.5949C41.5945 14.8912 41.8245 15.3461 41.8245 16.0158H42.2253ZM39.5597 13.711V13.3101H36.6336V13.711V14.1118H39.5597V13.711ZM50.074 12.7089L49.7134 12.8838L50.0718 13.6227L50.4338 12.8856L50.074 12.7089ZM53.381 5.97472V5.57388H53.1312L53.0212 5.79803L53.381 5.97472ZM55.325 5.97472L55.6812 6.15869L55.9833 5.57388H55.325V5.97472ZM50.9559 14.4325L50.5997 14.2485L50.555 14.3351V14.4325H50.9559ZM50.9559 20.0042V20.4051H51.3567V20.0042H50.9559ZM49.1521 20.0042H48.7512V20.4051H49.1521V20.0042ZM49.1521 14.4325H49.5529V14.3359L49.5089 14.2499L49.1521 14.4325ZM44.823 5.97472V5.57388H44.1675L44.4662 6.15736L44.823 5.97472ZM46.8071 5.97472L47.1678 5.79976L47.0582 5.57388H46.8071V5.97472ZM50.074 12.7089L50.4338 12.8856L53.7408 6.15141L53.381 5.97472L53.0212 5.79803L49.7142 12.5322L50.074 12.7089ZM53.381 5.97472V6.37556H55.325V5.97472V5.57388H53.381V5.97472ZM55.325 5.97472L54.9689 5.79075L50.5997 14.2485L50.9559 14.4325L51.312 14.6165L55.6812 6.15869L55.325 5.97472ZM50.9559 14.4325H50.555V20.0042H50.9559H51.3567V14.4325H50.9559ZM50.9559 20.0042V19.6034H49.1521V20.0042V20.4051H50.9559V20.0042ZM49.1521 20.0042H49.5529V14.4325H49.1521H48.7512V20.0042H49.1521ZM49.1521 14.4325L49.5089 14.2499L45.1798 5.79208L44.823 5.97472L44.4662 6.15736L48.7953 14.6151L49.1521 14.4325ZM44.823 5.97472V6.37556H46.8071V5.97472V5.57388H44.823V5.97472ZM46.8071 5.97472L46.4465 6.14968L49.7134 12.8838L50.074 12.7089L50.4347 12.5339L47.1678 5.79976L46.8071 5.97472ZM55.7982 15.4947V15.0939H55.3916L55.3974 15.5005L55.7982 15.4947ZM57.602 15.4947L58.0024 15.476L57.9846 15.0939H57.602V15.4947ZM62.0514 14.0717L61.9664 14.4635L61.9698 14.4642L62.0514 14.0717ZM59.9269 13.6108L60.0119 13.219L60.0107 13.2188L59.9269 13.6108ZM66.2602 10.1836V10.5844H66.6735L66.6609 10.1713L66.2602 10.1836ZM64.4564 10.1836L64.0562 10.2066L64.078 10.5844H64.4564V10.1836ZM60.428 11.8871L60.5103 11.4949L60.5086 11.4945L60.428 11.8871ZM62.4322 12.308L62.3498 12.7003L62.351 12.7006L62.4322 12.308ZM61.1094 20.2046V19.8038C59.3842 19.8038 58.1774 19.3467 57.3989 18.6106C56.6223 17.8763 56.2179 16.8132 56.199 15.489L55.7982 15.4947L55.3974 15.5005C55.4186 16.9822 55.8761 18.274 56.8481 19.1932C57.8183 20.1105 59.2471 20.6055 61.1094 20.6055V20.2046ZM55.7982 15.4947V15.8956H57.602V15.4947V15.0939H55.7982V15.4947ZM57.602 15.4947L57.2016 15.5134C57.2555 16.6667 57.6387 17.5538 58.3608 18.1428C59.0716 18.7225 60.0489 18.962 61.1896 18.962V18.5612V18.1603C60.1456 18.1603 59.3793 17.9389 58.8675 17.5215C58.3671 17.1134 58.0487 16.4673 58.0024 15.476L57.602 15.4947ZM61.1896 18.5612V18.962H61.3098V18.5612V18.1603H61.1896V18.5612ZM61.3098 18.5612V18.962C62.3423 18.962 63.1745 18.6819 63.7553 18.1841C64.3403 17.6827 64.6368 16.9877 64.6368 16.2363H64.236H63.8351C63.8351 16.7675 63.6306 17.2351 63.2335 17.5754C62.8322 17.9194 62.2014 18.1603 61.3098 18.1603V18.5612ZM64.236 16.2363H64.6368C64.6368 15.584 64.4505 15.0134 64.0078 14.5644C63.5767 14.1272 62.9434 13.8477 62.1329 13.6793L62.0514 14.0717L61.9698 14.4642C62.7026 14.6165 63.1616 14.8481 63.437 15.1273C63.7008 15.3949 63.8351 15.7461 63.8351 16.2363H64.236ZM62.0514 14.0717L62.1364 13.68L60.0119 13.219L59.9269 13.6108L59.8419 14.0025L61.9664 14.4635L62.0514 14.0717ZM59.9269 13.6108L60.0107 13.2188C58.8848 12.9782 58.1119 12.5802 57.6196 12.0424C57.134 11.5119 56.8805 10.8004 56.8805 9.84285H56.4797H56.0788C56.0788 10.9497 56.3765 11.8716 57.0283 12.5837C57.6733 13.2885 58.6241 13.7423 59.8431 14.0028L59.9269 13.6108ZM56.4797 9.84285H56.8805C56.8805 7.91939 58.4829 6.17514 61.2898 6.17514V5.7743V5.37346C58.1241 5.37346 56.0788 7.39712 56.0788 9.84285H56.4797ZM61.2898 5.7743V6.17514C62.7667 6.17514 63.8846 6.59807 64.639 7.28981C65.3915 7.97982 65.8222 8.97354 65.8596 10.1958L66.2602 10.1836L66.6609 10.1713C66.618 8.76808 66.1168 7.55716 65.1808 6.69892C64.2467 5.8424 62.9194 5.37346 61.2898 5.37346V5.7743ZM66.2602 10.1836V9.78273H64.4564V10.1836V10.5844H66.2602V10.1836ZM64.4564 10.1836L64.8566 10.1606C64.8012 9.1957 64.4307 8.39799 63.7952 7.84452C63.1635 7.29427 62.3064 7.01691 61.3299 7.01691V7.41775V7.8186C62.1571 7.8186 62.8132 8.05231 63.2687 8.44905C63.7205 8.84257 64.0115 9.42777 64.0562 10.2066L64.4564 10.1836ZM61.3299 7.41775V7.01691H61.2296V7.41775V7.8186H61.3299V7.41775ZM61.2296 7.41775V7.01691C59.3153 7.01691 57.8826 8.17389 57.8826 9.82281H58.2835H58.6843C58.6843 8.746 59.6166 7.8186 61.2296 7.8186V7.41775ZM58.2835 9.82281H57.8826C57.8826 10.4909 58.0829 11.0461 58.532 11.4697C58.9644 11.8776 59.586 12.1234 60.3473 12.2798L60.428 11.8871L60.5086 11.4945C59.8068 11.3503 59.3562 11.1451 59.0821 10.8866C58.8248 10.6438 58.6843 10.3171 58.6843 9.82281H58.2835ZM60.428 11.8871L60.3456 12.2794L62.3498 12.7003L62.4322 12.308L62.5146 11.9157L60.5103 11.4949L60.428 11.8871ZM62.4322 12.308L62.351 12.7006C63.4696 12.932 64.2862 13.3225 64.8215 13.8688C65.3474 14.4055 65.6389 15.1303 65.6389 16.116H66.0398H66.4406C66.4406 14.9573 66.0908 14.0186 65.3941 13.3077C64.7069 12.6064 63.7197 12.1651 62.5134 11.9155L62.4322 12.308ZM66.0398 16.116H65.6389C65.6389 17.1983 65.2241 18.1066 64.4715 18.7501C63.7137 19.398 62.5811 19.8038 61.1094 19.8038V20.2046V20.6055C62.7242 20.6055 64.0568 20.1594 64.9925 19.3594C65.9335 18.5548 66.4406 17.4188 66.4406 16.116H66.0398ZM69.3188 20.0042V20.4051H69.7197V20.0042H69.3188ZM67.515 20.0042H67.1142V20.4051H67.515V20.0042ZM67.515 5.97472V5.57388H67.1142V5.97472H67.515ZM69.3188 5.97472H69.7197V5.57388H69.3188V5.97472ZM69.3188 12.1677H68.918V12.5686H69.3188V12.1677ZM74.8905 12.1677V12.5686H75.2914V12.1677H74.8905ZM74.8905 5.97472V5.57388H74.4897V5.97472H74.8905ZM76.6943 5.97472H77.0952V5.57388H76.6943V5.97472ZM76.6943 20.0042V20.4051H77.0952V20.0042H76.6943ZM74.8905 20.0042H74.4897V20.4051H74.8905V20.0042ZM74.8905 13.8112H75.2914V13.4104H74.8905V13.8112ZM69.3188 13.8112V13.4104H68.918V13.8112H69.3188ZM69.3188 20.0042V19.6034H67.515V20.0042V20.4051H69.3188V20.0042ZM67.515 20.0042H67.9159V5.97472H67.515H67.1142V20.0042H67.515ZM67.515 5.97472V6.37556H69.3188V5.97472V5.57388H67.515V5.97472ZM69.3188 5.97472H68.918V12.1677H69.3188H69.7197V5.97472H69.3188ZM69.3188 12.1677V12.5686H74.8905V12.1677V11.7669H69.3188V12.1677ZM74.8905 12.1677H75.2914V5.97472H74.8905H74.4897V12.1677H74.8905ZM74.8905 5.97472V6.37556H76.6943V5.97472V5.57388H74.8905V5.97472ZM76.6943 5.97472H76.2935V20.0042H76.6943H77.0952V5.97472H76.6943ZM76.6943 20.0042V19.6034H74.8905V20.0042V20.4051H76.6943V20.0042ZM74.8905 20.0042H75.2914V13.8112H74.8905H74.4897V20.0042H74.8905ZM74.8905 13.8112V13.4104H69.3188V13.8112V14.212H74.8905V13.8112ZM69.3188 13.8112H68.918V20.0042H69.3188H69.7197V13.8112H69.3188ZM87.7898 20.0042V20.4051H88.1907V20.0042H87.7898ZM78.831 20.0042H78.4302V20.4051H78.831V20.0042ZM78.831 5.97472V5.57388H78.4302V5.97472H78.831ZM87.5894 5.97472H87.9903V5.57388H87.5894V5.97472ZM87.5894 7.61817V8.01902H87.9903V7.61817H87.5894ZM80.6348 7.61817V7.21733H80.234V7.61817H80.6348ZM80.6348 11.9673H80.234V12.3682H80.6348V11.9673ZM86.5272 11.9673H86.928V11.5665H86.5272V11.9673ZM86.5272 13.6108V14.0116H86.928V13.6108H86.5272ZM80.6348 13.6108V13.2099H80.234V13.6108H80.6348ZM80.6348 18.3608H80.234V18.7616H80.6348V18.3608ZM87.7898 18.3608H88.1907V17.9599H87.7898V18.3608ZM87.7898 20.0042V19.6034H78.831V20.0042V20.4051H87.7898V20.0042ZM78.831 20.0042H79.2319V5.97472H78.831H78.4302V20.0042H78.831ZM78.831 5.97472V6.37556H87.5894V5.97472V5.57388H78.831V5.97472ZM87.5894 5.97472H87.1886V7.61817H87.5894H87.9903V5.97472H87.5894ZM87.5894 7.61817V7.21733H80.6348V7.61817V8.01902H87.5894V7.61817ZM80.6348 7.61817H80.234V11.9673H80.6348H81.0356V7.61817H80.6348ZM80.6348 11.9673V12.3682H86.5272V11.9673V11.5665H80.6348V11.9673ZM86.5272 11.9673H86.1264V13.6108H86.5272H86.928V11.9673H86.5272ZM86.5272 13.6108V13.2099H80.6348V13.6108V14.0116H86.5272V13.6108ZM80.6348 13.6108H80.234V18.3608H80.6348H81.0356V13.6108H80.6348ZM80.6348 18.3608V18.7616H87.7898V18.3608V17.9599H80.6348V18.3608ZM87.7898 18.3608H87.389V20.0042H87.7898H88.1907V18.3608H87.7898ZM94.1554 17.98L93.7701 18.0906L94.1577 19.4402L94.541 18.0894L94.1554 17.98ZM97.5626 5.97472V5.57388H97.2597L97.177 5.86528L97.5626 5.97472ZM99.5067 5.97472L99.8908 6.0894L100.045 5.57388H99.5067V5.97472ZM95.3179 20.0042V20.4051H95.6165L95.7019 20.1189L95.3179 20.0042ZM92.9729 20.0042L92.5888 20.1189L92.6743 20.4051H92.9729V20.0042ZM88.7841 5.97472V5.57388H88.2461L88.4 6.0894L88.7841 5.97472ZM90.7082 5.97472L91.0934 5.86409L91.0101 5.57388H90.7082V5.97472ZM94.1554 17.98L94.541 18.0894L97.9482 6.08416L97.5626 5.97472L97.177 5.86528L93.7698 17.8705L94.1554 17.98ZM97.5626 5.97472V6.37556H99.5067V5.97472V5.57388H97.5626V5.97472ZM99.5067 5.97472L99.1226 5.86004L94.9338 19.8895L95.3179 20.0042L95.7019 20.1189L99.8908 6.0894L99.5067 5.97472ZM95.3179 20.0042V19.6034H92.9729V20.0042V20.4051H95.3179V20.0042ZM92.9729 20.0042L93.357 19.8895L89.1682 5.86004L88.7841 5.97472L88.4 6.0894L92.5888 20.1189L92.9729 20.0042ZM88.7841 5.97472V6.37556H90.7082V5.97472V5.57388H88.7841V5.97472ZM90.7082 5.97472L90.3229 6.08535L93.7701 18.0906L94.1554 17.98L94.5407 17.8693L91.0934 5.86409L90.7082 5.97472Z" fill="white" mask="url(#path-1-outside-1_19_202)"/>
</svg>
